<?xml version="1.0" encoding="utf-8"?>
<!-- Generator: Adobe Illustrator 17.0.0, SVG Export Plug-In . SVG Version: 6.00 Build 0)  -->
<!DOCTYPE svg PUBLIC "-//W3C//DTD SVG 1.1//EN" "http://www.w3.org/Graphics/SVG/1.1/DTD/svg11.dtd">
<svg version="1.1" xmlns="http://www.w3.org/2000/svg" xmlns:xlink="http://www.w3.org/1999/xlink" x="0px" y="0px" width="220px"
	 height="170px" viewBox="0 0 220 170" enable-background="new 0 0 220 170" xml:space="preserve">
<g id="Camada_1">
	<g>
		<path fill="#0F3A5D" d="M212,146c0,6.627-5.373,12-12,12H19.333c-6.627,0-12-5.373-12-12V39.333c0-6.627,5.373-12,12-12H200
			c6.627,0,12,5.373,12,12V146z"/>
		<path fill="#FFFFFF" stroke="#0F3A5D" stroke-width="6" stroke-miterlimit="10" d="M109.333,138.333
			c0,0,8.333-11.667,32.667-11.667s60,19,60,19V37.333c0,0-34-21.667-61.333-21.667S109.333,33,109.333,33"/>
		<path fill="#FFFFFF" stroke="#0F3A5D" stroke-width="6" stroke-miterlimit="10" d="M109,138.667c0,0-8.333-11.667-32.667-11.667
			s-60,19-60,19V37.667c0,0,34-21.667,61.333-21.667S109,33.333,109,33.333"/>
		<path fill="#FFFFFF" stroke="#0F3A5D" stroke-width="6" stroke-miterlimit="10" d="M109.333,138.333
			c0,0,8.333-11.667,32.667-11.667s60,19,60,19V37.333c0,0-34-21.667-61.333-21.667S109.333,33,109.333,33"/>
		<line fill="#FFFFFF" stroke="#B3DAF4" stroke-width="6" stroke-miterlimit="10" x1="109.333" y1="33" x2="109.333" y2="138.333"/>
		<path fill="none" stroke="#0F3A5D" stroke-width="6" stroke-linecap="round" stroke-linejoin="round" stroke-miterlimit="10" d="
			M109,138.667c0,0-8.333-11.667-32.667-11.667s-60,19-60,19V37.667c0,0,34-21.667,61.333-21.667S109,33.333,109,33.333"/>
		<path fill="none" stroke="#0F3A5D" stroke-width="6" stroke-linecap="round" stroke-linejoin="round" stroke-miterlimit="10" d="
			M109.333,138.333c0,0,8.333-11.667,32.667-11.667s60,19,60,19V37.333c0,0-34-21.667-61.333-21.667S109.333,33,109.333,33"/>
	</g>
</g>
<g id="Layer_3">
</g>
</svg>
